PathFileType	4	(X/Y/Z)	/Users/itak/Documents/Research/Walk-IL/dataset/trc/00334_00011.trc
DataRate	CameraRate	NumFrames	NumMarkers	Units	OrigDataRate	OrigDataStartFrame	OrigNumFrames
100.000000	100.000000	4	54	mm	100.000000	509	582
Frame#	Time	RPSI			LPSI			L3			STRN			T10			C7			CLAV			RBAK			LBAK			LSHO			LUPA			LAEL			LAOL			LWTS			LWPS			LFRA			LHPS			LHTS			RSHO			RUPA			RAEL			RAOL			RWTS			RWPS			RFRA			RIFD			RHTS			RHPS			RBHD			LFHD			RFHD			LBHD			LHIP			RHIP			RASI			LASI			LKNE			LTHI			LANK			LTIP			LTOE			LMT1			LMT5			LHEE			RKNE			RTHI			RANK			RTIP			RTOE			RMT1			RMT5			RHEE			LIFD			*53			
		X1	Y1	Z1	X2	Y2	Z2	X3	Y3	Z3	X4	Y4	Z4	X5	Y5	Z5	X6	Y6	Z6	X7	Y7	Z7	X8	Y8	Z8	X9	Y9	Z9	X10	Y10	Z10	X11	Y11	Z11	X12	Y12	Z12	X13	Y13	Z13	X14	Y14	Z14	X15	Y15	Z15	X16	Y16	Z16	X17	Y17	Z17	X18	Y18	Z18	X19	Y19	Z19	X20	Y20	Z20	X21	Y21	Z21	X22	Y22	Z22	X23	Y23	Z23	X24	Y24	Z24	X25	Y25	Z25	X26	Y26	Z26	X27	Y27	Z27	X28	Y28	Z28	X29	Y29	Z29	X30	Y30	Z30	X31	Y31	Z31	X32	Y32	Z32	X33	Y33	Z33	X34	Y34	Z34	X35	Y35	Z35	X36	Y36	Z36	X37	Y37	Z37	X38	Y38	Z38	X39	Y39	Z39	X40	Y40	Z40	X41	Y41	Z41	X42	Y42	Z42	X43	Y43	Z43	X44	Y44	Z44	X45	Y45	Z45	X46	Y46	Z46	X47	Y47	Z47	X48	Y48	Z48	X49	Y49	Z49	X50	Y50	Z50	X51	Y51	Z51	X52	Y52	Z52	X53	Y53	Z53	X54	Y54	Z54	

510	5.09	-1126.067138671875	983.0238647460938	172.1376190185547	-1134.2763671875	983.8533325195312	43.88217544555664	-1132.1416015625	1034.98974609375	111.7155380249023	-912.5045776367188	1229.060424804688	86.50663757324219	-1150.29052734375	1155.500732421875	102.2837753295898	-1119.20751953125	1404.67724609375	81.54618835449219	-960.6513061523438	1352.545166015625	82.58940124511719	-1157.787963867188	1265.901611328125	152.9857788085938	-1130.708984375	1365.48193359375	-19.22975158691406	-1047.528930664062	1385.032104492188	-78.35807037353516	-1059.776611328125	1262.795532226562	-143.0261077880859	-1028.510620117188	1059.57470703125	-151.2912750244141	-1090.602661132812	1044.259521484375	-95.57032775878906	-929.012939453125	818.2169799804688	-100.8874206542969	-963.6776733398438	807.9901123046875	-159.138427734375	-1009.031005859375	956.143310546875	-156.321533203125	-966.6253662109375	737.5233764648438	-155.3297576904297	-914.412841796875	740.9871215820312	-118.1526870727539	-1055.8623046875	1396.186401367188	242.6254119873047	-1064.3916015625	1332.986328125	308.8768005371094	-1057.291259765625	1064.544555664062	345.7816162109375	-1096.57861328125	1056.475463867188	258.7982177734375	-941.6128540039062	838.3816528320312	300.4119567871094	-978.5934448242188	822.792724609375	366.3293762207031	-1031.656127929688	996.531494140625	354.9947814941406	-926.8882446289062	663.8733520507812	312.3749694824219	-913.3429565429688	735.8948364257812	315.6476440429688	-963.020751953125	737.936767578125	363.3026123046875	-1086.846557617188	1611.76806640625	160.4696960449219	-916.9456176757812	1631.442504882812	38.69311904907227	-926.0121459960938	1631.89306640625	139.5110626220703	-1101.155029296875	1604.157836914062	15.90314292907715	-1056.062866210938	925.5615234375	-65.54810333251953	-1043.128295898438	926.0556640625	275.6406555175781	-938.8925170898438	956.216064453125	226.6563720703125	-931.5733642578125	952.9772338867188	-14.69880676269531	-1029.897216796875	466.6191101074219	-45.56933975219727	-1023.533081054688	607.9111938476562	-57.25717926025391	-1116.318969726562	50.71358489990234	-15.46646690368652	-1076.680053710938	251.6277313232422	-42.20528793334961	-908.2622680664062	45.81333923339844	32.880126953125	-978.6737060546875	29.72477912902832	79.97351837158203	-992.0941162109375	49.27561950683594	-35.76607513427734	-1148.561767578125	46.09666442871094	53.44498062133789	-1035.182861328125	462.2700805664062	239.1511077880859	-977.9577026367188	716.8601684570312	269.6929931640625	-1100.092651367188	49.72248077392578	198.0788116455078	-1034.123291015625	344.733642578125	224.9840393066406	-906.5123901367188	49.48361206054688	141.7780456542969	-960.0125732421875	46.019775390625	100.1055297851562	-996.8617553710938	42.01564788818359	214.3748626708984	-1152.8720703125	50.35769271850586	150.9248199462891	-923.1265869140625	657.1068115234375	-100.4998474121094	nan	nan	nan	
511	5.100000000000001	-1126.409912109375	982.857666015625	172.0695190429688	-1135.104370117188	983.6682739257812	43.82992172241211	-1132.666870117188	1035.023193359375	111.4908447265625	-912.9226684570312	1229.004150390625	86.11609649658203	-1150.702758789062	1155.598510742188	101.7825927734375	-1119.529174804688	1404.736450195312	80.97894287109375	-960.9453125	1352.630615234375	82.18778228759766	-1158.264526367188	1266.001220703125	152.4893646240234	-1130.949462890625	1365.510620117188	-19.84428977966309	-1047.611083984375	1385.0400390625	-78.84308624267578	-1059.369018554688	1262.702270507812	-143.5070343017578	-1027.630004882812	1059.520263671875	-151.3902130126953	-1090.254516601562	1044.169799804688	-96.30921173095703	-928.84814453125	818.0704956054688	-99.79785919189453	-962.7216186523438	807.919189453125	-158.5543670654297	-1008.078735351562	956.1136474609375	-156.1977996826172	-965.8046875	737.4663696289062	-154.8633575439453	-914.2410278320312	740.7467651367188	-116.9446258544922	-1056.270629882812	1396.276733398438	242.1244659423828	-1064.807006835938	1333.10888671875	308.4509887695312	-1057.138549804688	1064.662353515625	345.5829772949219	-1096.42822265625	1056.337768554688	258.5697937011719	-939.6782836914062	839.5927124023438	299.9856872558594	-976.8942260742188	823.2866821289062	365.6396484375	-1031.168212890625	996.672119140625	354.7203674316406	-923.3860473632812	665.0443115234375	311.5796508789062	-910.457275390625	737.2623901367188	315.1083984375	-960.492431640625	738.6304321289062	362.467041015625	-1087.323852539062	1611.772094726562	160.0957946777344	-917.4265747070312	1631.58935546875	38.41386413574219	-926.4954833984375	1631.98681640625	139.2043762207031	-1101.570190429688	1604.156494140625	15.54302597045898	-1057.209106445312	925.4501342773438	-65.86703491210938	-1042.578247070312	925.91015625	275.4382934570312	-939	956.3363037109375	225.8084106445312	-932.57177734375	953.1253051757812	-15.54544544219971	-1029.995239257812	466.627197265625	-45.9111442565918	-1023.739990234375	607.8684692382812	-57.50192260742188	-1116.309814453125	50.69624710083008	-15.4386510848999	-1076.62451171875	251.564453125	-42.25564956665039	-908.2237548828125	45.80806350708008	32.8802604675293	-978.6163940429688	29.70760154724121	79.93598175048828	-992.085205078125	49.264404296875	-35.77626419067383	-1148.55712890625	46.08620452880859	53.4738883972168	-1034.794067382812	462.3639526367188	238.5242462158203	-977.672119140625	717.1271362304688	269.0051879882812	-1100.032836914062	49.76635360717773	198.0482025146484	-1033.8271484375	344.7000732421875	224.5405578613281	-906.4887084960938	49.39791870117188	141.7316131591797	-959.9801635742188	45.95181655883789	100.0394515991211	-996.8521118164062	42.03242492675781	214.3155670166016	-1152.823364257812	50.39163589477539	150.8702392578125	-923.1783447265625	656.8939208984375	-99.44953155517578	nan	nan	nan	
512	5.11	-1126.741088867188	982.7100219726562	171.9911041259766	-1135.903930664062	983.5126953125	43.73880004882812	-1133.188842773438	1035.083862304688	111.2369079589844	-913.3357543945312	1228.940795898438	85.72492980957031	-1151.104248046875	1155.704956054688	101.3350372314453	-1119.837280273438	1404.803955078125	80.44464111328125	-961.2089233398438	1352.72705078125	81.75527191162109	-1158.705322265625	1266.098754882812	152.0455474853516	-1131.212768554688	1365.5546875	-20.43099784851074	-1047.727294921875	1385.061279296875	-79.31838226318359	-1059.012329101562	1262.631469726562	-143.9718933105469	-1026.824829101562	1059.486938476562	-151.4642486572266	-1089.936889648438	1044.097045898438	-96.99688720703125	-928.6243286132812	817.9922485351562	-98.76063537597656	-961.84228515625	807.8756103515625	-157.9640655517578	-1007.19677734375	956.103759765625	-156.0556945800781	-965.0126342773438	737.4341430664062	-154.3360137939453	-914.0001220703125	740.5586547851562	-115.7667922973633	-1056.631469726562	1396.374145507812	241.6209716796875	-1065.14111328125	1333.214111328125	308.03125	-1056.899047851562	1064.772094726562	345.3291015625	-1096.257934570312	1056.219604492188	258.3533325195312	-937.9097290039062	840.7244262695312	299.5111083984375	-975.143798828125	823.7779541015625	364.8875427246094	-1030.596313476562	996.8346557617188	354.3889770507812	-919.9562377929688	666.1978759765625	310.7648010253906	-907.5603637695312	738.721923828125	314.5084838867188	-957.990966796875	739.3623046875	361.6499328613281	-1087.779418945312	1611.790405273438	159.738525390625	-917.87939453125	1631.728393554688	38.12211608886719	-926.9724731445312	1632.083740234375	138.9109802246094	-1101.963989257812	1604.171630859375	15.15983390808105	-1058.281616210938	925.3485717773438	-66.1829833984375	-1042.108032226562	925.7960205078125	275.143798828125	-939.1475830078125	956.4611206054688	225.0096740722656	-933.5262451171875	953.2633056640625	-16.33164215087891	-1030.106323242188	466.63134765625	-46.25391006469727	-1023.806091308594	607.786376953125	-57.66115951538086	-1116.304321289062	50.67700958251953	-15.41415214538574	-1076.578857421875	251.4969940185547	-42.31111907958984	-908.2034912109375	45.81003189086914	32.87138366699219	-978.5411376953125	29.70259094238281	79.89250183105469	-992.075927734375	49.25119781494141	-35.78901672363281	-1148.551513671875	46.07182312011719	53.50071716308594	-1034.447143554688	462.4403991699219	237.944580078125	-977.4505004882812	717.3875732421875	268.3789978027344	-1099.977661132812	49.80952072143555	198.0248260498047	-1033.567260742188	344.6526184082031	224.1132507324219	-906.4667358398438	49.32258224487305	141.69287109375	-959.9361572265625	45.89437484741211	99.97091674804688	-996.8362426757812	42.04363632202148	214.2605285644531	-1152.772827148438	50.42334365844727	150.8220672607422	-923.2034301757812	656.7366333007812	-98.41059112548828	nan	nan	nan	
513	5.12	-1127.05419921875	982.5903930664062	171.8927001953125	-1136.659423828125	983.3920288085938	43.60327529907227	-1133.716552734375	1035.165161132812	110.9480133056641	-913.7518920898438	1228.874389648438	85.32392883300781	-1151.484375	1155.814575195312	100.9334106445312	-1120.14208984375	1404.877807617188	79.94232940673828	-961.457763671875	1352.828002929688	81.29609680175781	-1159.099609375	1266.187866210938	151.6555328369141	-1131.505493164062	1365.611938476562	-20.98952674865723	-1047.892578125	1385.09716796875	-79.78746032714844	-1058.728637695312	1262.587524414062	-144.4221649169922	-1026.118774414062	1059.477783203125	-151.5168762207031	-1089.665893554688	1044.045776367188	-97.62196350097656	-928.34326171875	817.9901123046875	-97.79056549072266	-961.0455932617188	807.8673706054688	-157.3739318847656	-1006.399780273438	956.1163330078125	-155.8969573974609	-964.2511596679688	737.4320678710938	-153.7504577636719	-913.6618041992188	740.4525756835938	-114.6356048583984	-1056.956298828125	1396.476684570312	241.1132202148438	-1065.402465820312	1333.301879882812	307.6102905273438	-1056.568359375	1064.8759765625	345.0182495117188	-1096.064819335938	1056.131103515625	258.1560363769531	-936.3649291992188	841.719482421875	298.9788513183594	-973.349609375	824.2692260742188	364.0820617675781	-1029.9521484375	997.015625	354.0086975097656	-916.62646484375	667.32861328125	309.8994750976562	-904.6746215820312	740.2767333984375	313.8307189941406	-955.5271606445312	740.1130981445312	360.8353881835938	-1088.222534179688	1611.81982421875	159.3798828125	-918.2982177734375	1631.853637695312	37.81803131103516	-927.4441528320312	1632.1787109375	138.6298370361328	-1102.336547851562	1604.213134765625	14.74763011932373	-1059.264770507812	925.2662963867188	-66.50252532958984	-1041.755126953125	925.7134399414062	274.7661743164062	-939.3403930664062	956.5856323242188	224.2620697021484	-934.4208984375	953.3828125	-17.04627799987793	-1030.233642578125	466.6291198730469	-46.59262084960938	-1023.745910644531	607.6666870117188	-57.74860000610352	-1116.30419921875	50.65830612182617	-15.39357376098633	-1076.549682617188	251.4264221191406	-42.37152481079102	-908.2005615234375	45.81817626953125	32.85423278808594	-978.4577026367188	29.70564842224121	79.84757995605469	-992.067138671875	49.23593139648438	-35.80331802368164	-1148.545654296875	46.0554084777832	53.52554321289062	-1034.146484375	462.4971923828125	237.4339904785156	-977.3075561523438	717.6398315429688	267.8302612304688	-1099.929321289062	49.85135269165039	198.00439453125	-1033.338989257812	344.60107421875	223.7051391601562	-906.4456176757812	49.25651550292969	141.6605377197266	-959.8856201171875	45.84567642211914	99.90444946289062	-996.8162841796875	42.05155563354492	214.2117767333984	-1152.721801757812	50.45213317871094	150.7789001464844	-923.16650390625	656.667724609375	-97.37940979003906	nan	nan	nan	
